/* XPM */
static char *icon[] = {
/* columns rows colors chars-per-pixel */
"32 32 2 1 ",
"  c #33B83A",
". c None",
/* pixels */
"................................",
"................................",
".........              .........",
".........              .........",
".........              .........",
".........              .........",
"..............    ..............",
"..............    ..............",
"..............    ..............",
"..............    ..............",
"..............    ..............",
"..............    ..............",
"..............    ..............",
"..............    ..............",
"..............    ..............",
"..............    ..............",
"..............    ..............",
"..............    ..............",
"..............    ..............",
"..............    ..............",
"..............    ..............",
"..............    ..............",
"..............    ..............",
"..............    ..............",
"..............    ..............",
"..............    ..............",
"..............    ..............",
"..............    ..............",
"..............    ..............",
"..............    ..............",
"................................",
"................................"
};
